<svg xmlns="http://www.w3.org/2000/svg" xmlns:xlink="http://www.w3.org/1999/xlink" width="500" zoomAndPan="magnify" viewBox="0 0 375 374.999991" height="500" preserveAspectRatio="xMidYMid meet" version="1.0"><defs><g/><clipPath id="cae175c573"><path d="M 99 159.007812 L 151.433594 159.007812 L 151.433594 211.507812 L 99 211.507812 Z M 99 159.007812 " clip-rule="nonzero"/></clipPath></defs><g fill="#000000" fill-opacity="1"><g transform="translate(35.899151, 207.808213)"><g><path d="M 66.75 -38.265625 L 66.75 -23.4375 C 64.976562 -15.320312 61.109375 -9.175781 55.140625 -5 C 49.179688 -0.832031 42.535156 1.25 35.203125 1.25 C 25.972656 1.25 18.113281 -2.203125 11.625 -9.109375 C 5.144531 -16.015625 1.90625 -24.351562 1.90625 -34.125 C 1.90625 -44.0625 5.078125 -52.453125 11.421875 -59.296875 C 17.773438 -66.140625 25.703125 -69.5625 35.203125 -69.5625 C 46.296875 -69.5625 55.070312 -65.671875 61.53125 -57.890625 L 51.34375 -46.703125 C 47.695312 -52.554688 42.617188 -55.484375 36.109375 -55.484375 C 31.304688 -55.484375 27.207031 -53.398438 23.8125 -49.234375 C 20.414062 -45.066406 18.71875 -40.03125 18.71875 -34.125 C 18.71875 -28.320312 20.414062 -23.363281 23.8125 -19.25 C 27.207031 -15.132812 31.304688 -13.078125 36.109375 -13.078125 C 40.078125 -13.078125 43.539062 -14.28125 46.5 -16.6875 C 49.457031 -19.09375 50.9375 -22.28125 50.9375 -26.25 L 35.203125 -26.25 L 35.203125 -38.265625 Z M 66.75 -38.265625 "/></g></g></g><g fill="#000000" fill-opacity="1"><g transform="translate(98.084671, 207.808213)"><g><path d="M 8.984375 -5.046875 C 4.265625 -9.242188 1.90625 -14.628906 1.90625 -21.203125 C 1.90625 -27.773438 4.359375 -33.171875 9.265625 -37.390625 C 14.179688 -41.609375 20.257812 -43.71875 27.5 -43.71875 C 34.613281 -43.71875 40.613281 -41.59375 45.5 -37.34375 C 50.382812 -33.09375 52.828125 -27.707031 52.828125 -21.1875 C 52.828125 -14.675781 50.441406 -9.304688 45.671875 -5.078125 C 40.898438 -0.859375 34.84375 1.25 27.5 1.25 C 19.875 1.25 13.703125 -0.847656 8.984375 -5.046875 Z M 20.328125 -28.40625 C 18.421875 -26.53125 17.46875 -24.128906 17.46875 -21.203125 C 17.46875 -18.273438 18.378906 -15.882812 20.203125 -14.03125 C 22.023438 -12.1875 24.425781 -11.265625 27.40625 -11.265625 C 30.28125 -11.265625 32.640625 -12.203125 34.484375 -14.078125 C 36.335938 -15.953125 37.265625 -18.328125 37.265625 -21.203125 C 37.265625 -24.128906 36.3125 -26.53125 34.40625 -28.40625 C 32.5 -30.28125 30.164062 -31.21875 27.40625 -31.21875 C 24.59375 -31.21875 22.234375 -30.28125 20.328125 -28.40625 Z M 20.328125 -28.40625 "/></g></g></g><g fill="#000000" fill-opacity="1"><g transform="translate(146.359017, 207.808213)"><g><path d="M 4.96875 0 L 4.96875 -71.21875 L 19.625 -71.21875 L 19.625 0 Z M 4.96875 0 "/></g></g></g><g fill="#000000" fill-opacity="1"><g transform="translate(164.492488, 207.808213)"><g><path d="M 4.96875 -68.328125 L 29.890625 -68.328125 C 36.847656 -68.328125 42.476562 -66.53125 46.78125 -62.9375 C 51.09375 -59.351562 53.25 -54.132812 53.25 -47.28125 C 53.25 -40.4375 51.066406 -35.066406 46.703125 -31.171875 C 42.347656 -27.285156 36.742188 -25.34375 29.890625 -25.34375 L 20.53125 -25.34375 L 20.53125 0 L 4.96875 0 Z M 20.53125 -37.765625 L 24.921875 -37.765625 C 28.398438 -37.765625 31.257812 -38.46875 33.5 -39.875 C 35.738281 -41.28125 36.859375 -43.585938 36.859375 -46.796875 C 36.859375 -50.046875 35.738281 -52.375 33.5 -53.78125 C 31.257812 -55.195312 28.398438 -55.90625 24.921875 -55.90625 L 20.53125 -55.90625 Z M 20.53125 -37.765625 "/></g></g></g><g fill="#000000" fill-opacity="1"><g transform="translate(213.180858, 207.808213)"><g><path d="M 4.96875 0 L 4.96875 -71.21875 L 19.625 -71.21875 L 19.625 0 Z M 4.96875 0 "/></g></g></g><g fill="#000000" fill-opacity="1"><g transform="translate(231.31433, 207.808213)"><g><path d="M 7.859375 -5.25 C 3.890625 -9.59375 1.90625 -14.910156 1.90625 -21.203125 C 1.90625 -27.492188 3.890625 -32.816406 7.859375 -37.171875 C 11.835938 -41.535156 16.890625 -43.71875 23.015625 -43.71875 C 28.648438 -43.71875 33.289062 -41.953125 36.9375 -38.421875 L 36.9375 -42.484375 L 51.59375 -42.484375 L 51.59375 0 L 37.09375 0 L 37.09375 -4.796875 L 36.9375 -4.796875 C 33.289062 -0.765625 28.648438 1.25 23.015625 1.25 C 16.890625 1.25 11.835938 -0.914062 7.859375 -5.25 Z M 20.328125 -28.40625 C 18.421875 -26.53125 17.46875 -24.128906 17.46875 -21.203125 C 17.46875 -18.273438 18.378906 -15.882812 20.203125 -14.03125 C 22.023438 -12.1875 24.425781 -11.265625 27.40625 -11.265625 C 30.28125 -11.265625 32.640625 -12.203125 34.484375 -14.078125 C 36.335938 -15.953125 37.265625 -18.328125 37.265625 -21.203125 C 37.265625 -24.128906 36.3125 -26.53125 34.40625 -28.40625 C 32.5 -30.28125 30.164062 -31.21875 27.40625 -31.21875 C 24.59375 -31.21875 22.234375 -30.28125 20.328125 -28.40625 Z M 20.328125 -28.40625 "/></g></g></g><g fill="#000000" fill-opacity="1"><g transform="translate(281.41038, 207.808213)"><g><path d="M 37.1875 -42.484375 L 54.078125 -42.484375 L 20.703125 21.53125 L 3.8125 21.53125 L 18.46875 -6.625 L -1.65625 -42.484375 L 15.234375 -42.484375 L 27.078125 -20.703125 Z M 37.1875 -42.484375 "/></g></g></g><g fill="#000000" fill-opacity="1"><g transform="translate(327.366188, 207.808213)"><g><path d="M 14.40625 -17.71875 C 17.0625 -17.71875 19.3125 -16.789062 21.15625 -14.9375 C 23.007812 -13.09375 23.9375 -10.847656 23.9375 -8.203125 C 23.9375 -5.609375 23.007812 -3.382812 21.15625 -1.53125 C 19.3125 0.320312 17.0625 1.25 14.40625 1.25 C 11.8125 1.25 9.585938 0.320312 7.734375 -1.53125 C 5.890625 -3.382812 4.96875 -5.609375 4.96875 -8.203125 C 4.96875 -10.847656 5.890625 -13.09375 7.734375 -14.9375 C 9.585938 -16.789062 11.8125 -17.71875 14.40625 -17.71875 Z M 14.40625 -17.71875 "/></g></g></g><g clip-path="url(#cae175c573)"><path fill="#ffffff" d="M 125.335938 159.359375 C 111.039062 159.359375 99.40625 170.992188 99.40625 185.289062 C 99.40625 199.589844 111.039062 211.222656 125.335938 211.222656 C 139.632812 211.222656 151.265625 199.589844 151.265625 185.289062 C 151.265625 170.992188 139.632812 159.359375 125.335938 159.359375 Z M 125.335938 159.359375 " fill-opacity="1" fill-rule="nonzero"/><path fill="#000000" d="M 125.335938 159.203125 C 110.953125 159.203125 99.25 170.90625 99.25 185.289062 C 99.25 199.675781 110.953125 211.378906 125.335938 211.378906 C 139.722656 211.378906 151.421875 199.675781 151.421875 185.289062 C 151.421875 170.90625 139.722656 159.203125 125.335938 159.203125 Z M 148.660156 182.015625 C 147.113281 183.410156 145.207031 184.953125 142.988281 186.203125 C 140.996094 184.5 136.871094 181.898438 134.875 180.949219 C 134.238281 177.441406 133.351562 174.035156 132.257812 170.890625 C 132.839844 170.117188 136.566406 166.972656 137.777344 166.175781 C 140.894531 167.585938 143.871094 169.859375 146.015625 171.976562 L 146.035156 172.019531 C 146.742188 173.789062 148.570312 178.984375 148.660156 182.015625 Z M 122.347656 204.34375 C 117.476562 203.589844 113.152344 201.785156 112.011719 201.023438 L 111.949219 200.980469 C 110.765625 198.972656 110.082031 197.625 109.515625 195.484375 C 109.25 194.480469 109.058594 192.996094 108.933594 191.496094 C 110 190.15625 114.242188 186.316406 115.773438 185.164062 C 118.882812 186.175781 122.570312 187.261719 126.019531 188.085938 C 126.792969 190.382812 128.648438 195.777344 129.460938 197.820312 C 127.425781 200.238281 124.796875 202.664062 122.347656 204.34375 Z M 121.535156 167.941406 C 124.058594 168.085938 130.011719 169.582031 131.90625 170.914062 C 133.007812 174.0625 133.902344 177.476562 134.542969 180.996094 C 133.769531 181.675781 132.296875 182.816406 130.734375 184.019531 C 128.84375 185.480469 126.894531 186.988281 126.097656 187.757812 C 122.679688 186.941406 119.023438 185.867188 115.929688 184.859375 C 115.894531 184.691406 115.824219 184.386719 115.730469 183.972656 C 115.246094 181.835938 114.117188 176.878906 113.742188 174.875 C 116.210938 172.273438 118.984375 169.816406 121.535156 167.941406 Z M 102.683594 186.46875 C 102.84375 186.613281 103.085938 186.828125 103.375 187.089844 C 104.839844 188.417969 107.546875 190.863281 108.601562 191.546875 C 108.726562 193.058594 108.921875 194.554688 109.191406 195.570312 C 109.773438 197.769531 110.472656 199.140625 111.683594 201.199219 C 111.492188 201.460938 111.296875 201.71875 111.101562 201.976562 C 110.597656 202.640625 110.078125 203.332031 109.421875 204.296875 C 108.417969 203.910156 107.5 203.449219 106.742188 203.03125 C 103.273438 199.398438 100.855469 194.753906 99.984375 189.589844 C 100.535156 188.886719 101.445312 187.734375 102.683594 186.46875 Z M 109.359375 204.632812 C 110.085938 205.652344 111.863281 207.023438 113.589844 208.160156 C 111.355469 207.003906 109.332031 205.554688 107.519531 203.8125 C 108.117188 204.117188 108.734375 204.390625 109.359375 204.632812 Z M 122.839844 205.085938 C 122.761719 204.917969 122.683594 204.75 122.601562 204.578125 C 125.058594 202.882812 127.6875 200.453125 129.726562 198.03125 C 129.835938 198.03125 129.949219 198.035156 130.070312 198.035156 C 132.5 198.035156 137.640625 197.542969 139.625 197.105469 C 140.671875 198.980469 141.765625 201.035156 142.464844 202.460938 C 140.871094 204.921875 137.335938 207.542969 135.433594 208.644531 C 134.003906 209.183594 132.136719 209.609375 129.585938 209.703125 C 127.925781 209.765625 126.585938 209.664062 125.214844 209.277344 C 124.402344 208.445312 123.710938 206.960938 122.839844 205.085938 Z M 146.058594 200.5 C 144.839844 201.3125 143.722656 201.910156 142.746094 202.265625 C 142.039062 200.828125 140.949219 198.78125 139.90625 196.917969 C 141.402344 194.398438 142.757812 189.257812 143.101562 186.527344 C 145.324219 185.285156 147.234375 183.75 148.789062 182.351562 C 149.855469 183.855469 150.878906 186.148438 151 186.90625 C 151 186.90625 151 186.910156 151 186.910156 C 150.847656 189.367188 150.351562 191.75 149.511719 194.0625 C 148.667969 196.375 147.519531 198.519531 146.058594 200.5 Z M 146.769531 171.09375 C 146.597656 171.308594 146.414062 171.511719 146.21875 171.703125 C 144.023438 169.546875 140.976562 167.234375 137.796875 165.816406 C 137.09375 164.46875 133.796875 161.730469 131.6875 160.757812 C 131.777344 160.652344 131.875 160.546875 131.972656 160.441406 C 138.105469 162.082031 143.34375 165.9375 146.769531 171.09375 Z M 131.605469 160.347656 C 131.515625 160.449219 131.421875 160.550781 131.332031 160.660156 C 129.105469 160.34375 123.039062 160.539062 121.191406 161.832031 C 119.347656 161.597656 117.492188 161.480469 115.632812 161.476562 C 118.164062 160.441406 120.796875 159.828125 123.527344 159.632812 C 126.257812 159.441406 128.953125 159.675781 131.605469 160.34375 Z M 114.839844 161.820312 C 116.921875 161.785156 118.996094 161.898438 121.0625 162.152344 L 121.070312 162.398438 C 121.117188 163.828125 121.203125 166.445312 121.324219 167.664062 C 118.753906 169.546875 115.984375 172.011719 113.484375 174.648438 C 111.3125 174.46875 107.484375 174.46875 105.730469 174.730469 C 105.128906 173.339844 104.585938 171.914062 104.238281 170.605469 C 105.578125 168.691406 107.144531 166.984375 108.945312 165.496094 C 110.742188 164.003906 112.707031 162.777344 114.839844 161.820312 Z M 103.988281 170.964844 C 104.34375 172.234375 104.871094 173.59375 105.445312 174.921875 C 103.996094 178.148438 102.464844 184.027344 102.511719 186.160156 C 101.589844 187.109375 100.722656 188.101562 99.90625 189.144531 C 99.667969 187.566406 99.578125 185.984375 99.632812 184.390625 C 99.691406 182.800781 99.894531 181.226562 100.242188 179.671875 C 100.589844 178.117188 101.078125 176.609375 101.710938 175.144531 C 102.339844 173.679688 103.097656 172.289062 103.988281 170.964844 Z M 119.542969 210.34375 C 119.832031 210.355469 120.136719 210.386719 120.417969 210.386719 C 122.445312 210.386719 124.160156 210.050781 125.097656 209.582031 C 126.277344 209.917969 127.433594 210.054688 128.765625 210.054688 C 129.035156 210.054688 129.3125 210.050781 129.597656 210.039062 C 131.660156 209.964844 133.285156 209.671875 134.59375 209.277344 C 132.195312 210.207031 129.714844 210.765625 127.148438 210.945312 C 124.582031 211.128906 122.046875 210.925781 119.539062 210.34375 Z M 119.542969 210.34375 " fill-opacity="1" fill-rule="nonzero"/></g></svg>